<?xml version="1.0" encoding="UTF-8"?>
<!-- Generator: Adobe Illustrator 23.0.0, SVG Export Plug-In . SVG Version: 6.00 Build 0)  -->
<svg version="1.1" id="Layer_1" xmlns="http://www.w3.org/2000/svg" xmlns:xlink="http://www.w3.org/1999/xlink" x="0px" y="0px" viewBox="0 0 64 64" style="enable-background:new 0 0 64 64;" xml:space="preserve" data-lt-installed="true">
<style type="text/css">
	.st0{fill:none;stroke:#949494;stroke-width:3.5;stroke-miterlimit:10;}
	.st1{fill:none;stroke:#949494;stroke-width:3.5;stroke-linecap:round;stroke-miterlimit:10;}
	.st2{display:none;fill:none;stroke:#949494;stroke-width:3.5;stroke-miterlimit:10;}
</style>
<g>
	<g>
		<circle class="st0" cx="32.1" cy="16.6" r="13.5"/>
		<path class="st0" d="M39.8,35.8H24.4c-12.2,0-22.1,9.9-22.1,22.1V58c0,1.6,1.3,2.9,2.9,2.9h53.7c1.6,0,2.9-1.3,2.9-2.9v-0.1    C61.9,45.7,52,35.8,39.8,35.8z"/>
	</g>
	<g>
		<path class="st1" d="M47.7,8.2c0.3,0,0.6,0,0.9,0c5.4,0,9.7,4.4,9.7,9.7s-4.4,9.7-9.7,9.7c-0.8,0-1.6-0.1-2.3-0.3"/>
		<path class="st1" d="M45.6,31.7h8.3c4.3,0,7.9,3.5,7.9,7.9v5"/>
		<path class="st2" d="M54.1,31.7H43c-8.8,0-16,7.1-16,16v0.1c0,1.2,0.9,2.1,2.1,2.1h38.8c1.2,0,2.1-0.9,2.1-2.1v-0.1    C70.1,38.9,62.9,31.7,54.1,31.7z"/>
	</g>
	<g>
		<path class="st1" d="M16.3,8.2c-0.3,0-0.6,0-0.9,0c-5.4,0-9.7,4.4-9.7,9.7s4.4,9.7,9.7,9.7c0.8,0,1.6-0.1,2.3-0.3"/>
		<path class="st1" d="M18.4,31.7h-8.3c-4.3,0-7.9,3.5-7.9,7.9v5"/>
		<path class="st2" d="M9.9,31.7H21c8.8,0,16,7.1,16,16v0.1c0,1.2-0.9,2.1-2.1,2.1H-3.9C-5,49.9-6,48.9-6,47.8v-0.1    C-6.1,38.9,1.1,31.7,9.9,31.7z"/>
	</g>
</g>
</svg>