<?xml version="1.0" encoding="UTF-8"?>
<!-- Generator: Adobe Illustrator 23.0.0, SVG Export Plug-In . SVG Version: 6.00 Build 0)  -->
<svg version="1.1" id="Layer_1" xmlns="http://www.w3.org/2000/svg" xmlns:xlink="http://www.w3.org/1999/xlink" x="0px" y="0px" viewBox="0 0 64 64" style="enable-background:new 0 0 64 64;" xml:space="preserve" data-lt-installed="true">
<style type="text/css">
	.st0{opacity:0.19;}
	.st1{fill:none;stroke:#949494;stroke-width:3.6495;stroke-linejoin:round;stroke-miterlimit:10;}
	.st2{fill:none;stroke:#949494;stroke-width:3.6495;stroke-miterlimit:10;}
</style>
<g id="Layer_3_1_" class="st0">
</g>
<g>
	<g>
		<g>
			<path class="st1" d="M51.3,2.3H12.8c-0.2,1.9-0.3,3.8-0.3,5.6c0,17.2,8.8,31.2,19.6,31.2S51.6,25.2,51.6,8     C51.6,6,51.5,4.2,51.3,2.3z"/>
			<path class="st1" d="M43.3,33.5C52.5,32.8,60,22.1,61.7,8c0,0-4.1,0-10.1,0"/>
			<path class="st1" d="M12.4,8C6.3,8,2.3,8,2.3,8C4,22.1,11.5,32.9,20.7,33.6"/>
		</g>
		<g>
			<path class="st2" d="M26.5,46.5v-8.6"/>
			<line class="st2" x1="37.5" y1="37.8" x2="37.5" y2="46.5"/>
		</g>
		<path class="st2" d="M43.8,46.9H20.2c-2.9,0-5.2,2.4-5.2,5.2v4.4c0,2.9,2.4,5.2,5.2,5.2h23.6c2.9,0,5.2-2.4,5.2-5.2v-4.4    C49,49.2,46.7,46.9,43.8,46.9z"/>
	</g>
</g>
</svg>